<mxfile host="app.diagrams.net" modified="2023-05-27T04:47:31.951Z" agent="Mozilla/5.0 (Windows NT 10.0; Win64; x64) AppleWebKit/537.36 (KHTML, like Gecko) Chrome/113.0.0.0 Safari/537.36" etag="yccSp5Cor8DZcDsSbCSu" version="21.3.4" type="github">
  <diagram name="Page-1" id="Nsb5o_6tdjtulUcONFPZ">
    <mxGraphModel dx="880" dy="476" grid="0" gridSize="10" guides="1" tooltips="1" connect="1" arrows="1" fold="1" page="1" pageScale="1" pageWidth="850" pageHeight="1100" math="0" shadow="0">
      <root>
        <mxCell id="0" />
        <mxCell id="1" parent="0" />
        <mxCell id="Url--dE9LmrYlm1uOAUC-1" value="" style="whiteSpace=wrap;html=1;aspect=fixed;strokeWidth=2;" vertex="1" parent="1">
          <mxGeometry x="146" y="32" width="80" height="80" as="geometry" />
        </mxCell>
        <mxCell id="Url--dE9LmrYlm1uOAUC-2" value="" style="image;aspect=fixed;html=1;points=[];align=center;fontSize=12;image=img/lib/azure2/networking/DNS_Zones.svg;" vertex="1" parent="1">
          <mxGeometry x="161.5" y="47.5" width="49" height="49" as="geometry" />
        </mxCell>
        <mxCell id="Url--dE9LmrYlm1uOAUC-3" value="" style="whiteSpace=wrap;html=1;aspect=fixed;strokeWidth=2;" vertex="1" parent="1">
          <mxGeometry x="133.5" y="219" width="103" height="103" as="geometry" />
        </mxCell>
        <mxCell id="Url--dE9LmrYlm1uOAUC-4" value="User" style="sketch=0;outlineConnect=0;fontColor=#232F3E;gradientColor=none;strokeColor=#232F3E;fillColor=#ffffff;dashed=0;verticalLabelPosition=bottom;verticalAlign=top;align=center;html=1;fontSize=12;fontStyle=0;aspect=fixed;shape=mxgraph.aws4.resourceIcon;resIcon=mxgraph.aws4.user;" vertex="1" parent="1">
          <mxGeometry x="153" y="236" width="60" height="60" as="geometry" />
        </mxCell>
        <mxCell id="Url--dE9LmrYlm1uOAUC-5" value="" style="endArrow=classic;html=1;rounded=0;entryX=0.75;entryY=1;entryDx=0;entryDy=0;" edge="1" parent="1" target="Url--dE9LmrYlm1uOAUC-1">
          <mxGeometry width="50" height="50" relative="1" as="geometry">
            <mxPoint x="206" y="141" as="sourcePoint" />
            <mxPoint x="210" y="115" as="targetPoint" />
          </mxGeometry>
        </mxCell>
        <mxCell id="Url--dE9LmrYlm1uOAUC-6" value="" style="endArrow=classic;html=1;rounded=0;exitX=0.5;exitY=1;exitDx=0;exitDy=0;" edge="1" parent="1" source="Url--dE9LmrYlm1uOAUC-7">
          <mxGeometry width="50" height="50" relative="1" as="geometry">
            <mxPoint x="399" y="274" as="sourcePoint" />
            <mxPoint x="166" y="217" as="targetPoint" />
          </mxGeometry>
        </mxCell>
        <mxCell id="Url--dE9LmrYlm1uOAUC-7" value="8.8.8.8" style="text;html=1;strokeColor=none;fillColor=none;align=center;verticalAlign=middle;whiteSpace=wrap;rounded=0;fontSize=14;" vertex="1" parent="1">
          <mxGeometry x="136" y="143" width="60" height="30" as="geometry" />
        </mxCell>
        <mxCell id="Url--dE9LmrYlm1uOAUC-10" value="www.foobar.com" style="text;html=1;strokeColor=none;fillColor=none;align=center;verticalAlign=middle;whiteSpace=wrap;rounded=0;fontSize=14;fontStyle=0;fontColor=#3399FF;" vertex="1" parent="1">
          <mxGeometry x="210.5" y="143" width="64" height="30" as="geometry" />
        </mxCell>
        <mxCell id="Url--dE9LmrYlm1uOAUC-13" value="" style="endArrow=none;html=1;rounded=0;entryX=0.25;entryY=1;entryDx=0;entryDy=0;exitX=0.5;exitY=0;exitDx=0;exitDy=0;" edge="1" parent="1" source="Url--dE9LmrYlm1uOAUC-7" target="Url--dE9LmrYlm1uOAUC-1">
          <mxGeometry width="50" height="50" relative="1" as="geometry">
            <mxPoint x="388" y="296" as="sourcePoint" />
            <mxPoint x="438" y="246" as="targetPoint" />
          </mxGeometry>
        </mxCell>
        <mxCell id="Url--dE9LmrYlm1uOAUC-14" value="" style="endArrow=none;html=1;rounded=0;entryX=0.684;entryY=-0.039;entryDx=0;entryDy=0;entryPerimeter=0;" edge="1" parent="1" target="Url--dE9LmrYlm1uOAUC-3">
          <mxGeometry width="50" height="50" relative="1" as="geometry">
            <mxPoint x="204" y="171" as="sourcePoint" />
            <mxPoint x="445" y="191" as="targetPoint" />
          </mxGeometry>
        </mxCell>
        <mxCell id="Url--dE9LmrYlm1uOAUC-16" style="edgeStyle=orthogonalEdgeStyle;rounded=0;orthogonalLoop=1;jettySize=auto;html=1;exitX=0.5;exitY=1;exitDx=0;exitDy=0;" edge="1" parent="1">
          <mxGeometry relative="1" as="geometry">
            <mxPoint x="549.5" y="507" as="sourcePoint" />
            <mxPoint x="549.5" y="507" as="targetPoint" />
          </mxGeometry>
        </mxCell>
      </root>
    </mxGraphModel>
  </diagram>
</mxfile>
